<?xml version="1.0" encoding="utf-8"?>
<!-- Generator: Adobe Illustrator 28.0.0, SVG Export Plug-In . SVG Version: 6.00 Build 0)  -->
<svg version="1.1" id="Camada_1" xmlns="http://www.w3.org/2000/svg" xmlns:xlink="http://www.w3.org/1999/xlink" x="0px" y="0px"
	 viewBox="0 0 2057.6 2057.6" style="enable-background:new 0 0 2057.6 2057.6;" xml:space="preserve">
<style type="text/css">
	.st0{fill:#2E8DFF;}
</style>
<path class="st0" d="M1913.7,986c0,203.7-70.3,401.1-198.5,558.4l-96-708.3l-51.7,112.6l0,0L1360.7,1399l-213,463.8
	c-4.8,0.6-9.5,1.3-14.2,1.8c-68.7,8.1-139.4,8.2-207.9,0.1c-4.8-0.6-9.4-1.2-14.2-1.8l-213.3-464.6L491.8,949.2l-51.7-112.6
	L345,1547.4c-129.7-157.9-201-356.5-201-561.5c0-339.3,197.9-652.9,504.2-799l381,880.5l383-879.2
	C1716.9,335.1,1913.7,648.1,1913.7,986z"/>
</svg>
