<?xml version="1.0" encoding="utf-8"?>
<!-- Generator: Adobe Illustrator 28.0.0, SVG Export Plug-In . SVG Version: 6.00 Build 0)  -->
<svg version="1.1" id="Camada_1" xmlns="http://www.w3.org/2000/svg" xmlns:xlink="http://www.w3.org/1999/xlink" x="0px" y="0px"
	 viewBox="0 0 485.3 309.8" style="enable-background:new 0 0 485.3 309.8;" xml:space="preserve">
<style type="text/css">
	.st0{fill:#FFFFFF;}
</style>
<path class="st0" d="M485.3,154.9c0,17.6-1.9,34.8-5.5,51.4c-8.3,38.8-26,74.1-50.4,103.5h-64.7V162.4l-84.5,147.4h-75.2
	l-84.5-147.4v147.4H55.8c-24.4-29.4-42-64.8-50.4-103.5C1.9,189.7,0,172.5,0,154.9s1.9-34.8,5.4-51.4C13.8,64.8,31.4,29.4,55.8,0
	H147l95.6,177.1L338.3,0h91.2c24.4,29.4,42.1,64.8,50.4,103.5C483.4,120.1,485.3,137.2,485.3,154.9z"/>
</svg>
