<?xml version="1.0" encoding="utf-8"?>
<!-- Generator: Adobe Illustrator 28.0.0, SVG Export Plug-In . SVG Version: 6.00 Build 0)  -->
<svg version="1.1" id="Camada_1" xmlns="http://www.w3.org/2000/svg" xmlns:xlink="http://www.w3.org/1999/xlink" x="0px" y="0px"
	 viewBox="0 0 1968.3 1968.3" style="enable-background:new 0 0 1968.3 1968.3;" xml:space="preserve">
<style type="text/css">
	.st0{fill:#FFFFFF;}
	.st1{stroke:#FFFFFF;stroke-width:10;stroke-miterlimit:10;}
	.st2{fill:none;stroke:#FFFFFF;stroke-width:10;stroke-miterlimit:10;}
	.st3{fill:#2E3192;stroke:#FFFFFF;stroke-width:10;stroke-miterlimit:10;}
</style>
<circle class="st0" cx="984.2" cy="984.2" r="984.2"/>
<g>
	<g>
		<path class="st1" d="M1522.8,946.9L1522.8,946.9L1500.5,798h-277.2l-238.9,548.5L746.9,797.9H469.7L447,947.3l-98.6,652.2
			c73.6,76.2,159.4,137.8,253.3,182.9l51.6-385.8l22.9-170.9l267.2,581.9h82l267.3-582.1l23.2,171.9l52.1,384.4
			c0.2-0.1,0.4-0.2,0.6-0.4c2.6-1.2,5.1-2.4,7.7-3.8c0.1-0.1,0.2-0.1,0.4-0.2c2.8-1.3,5.6-2.8,8.4-4.3c0.2-0.1,0.5-0.2,0.9-0.4
			c2.3-1.2,4.8-2.4,7.1-3.7c0.7-0.4,1.3-0.7,2.1-1.1c2.1-1.1,4-2.2,6.1-3.2c3.8-2.1,7.6-4.2,11.4-6.2c2-1.1,3.9-2.2,5.9-3.3
			c0.7-0.5,1.6-0.9,2.3-1.3c2.4-1.3,5-2.8,7.5-4.3c2.6-1.5,5.3-3.1,7.8-4.6c0.6-0.4,1.2-0.7,1.8-1.1c2.2-1.3,4.3-2.6,6.5-3.9
			c0.7-0.4,1.3-0.9,2.1-1.2c2-1.2,3.9-2.4,5.9-3.7c2.6-1.6,5-3.2,7.6-4.8c1.2-0.7,2.4-1.5,3.5-2.3c1.6-1,3.2-2.1,4.8-3.1
			c1.1-0.7,2.2-1.5,3.3-2.2c4.4-2.9,8.8-5.9,13.2-8.9c1.1-0.7,2.1-1.5,3.2-2.2c2.3-1.6,4.6-3.3,7-4.9c2-1.3,3.9-2.7,5.7-4.2
			c0.7-0.6,1.5-1.1,2.3-1.7c2-1.3,3.9-2.8,5.9-4.3c2.9-2.2,5.9-4.4,8.9-6.6c2.4-1.8,4.8-3.7,7.2-5.5c0.1-0.1,0.2-0.2,0.4-0.2
			c2.6-2,5-3.9,7.6-5.9c0.1-0.1,0.2-0.2,0.5-0.4c2.4-2,4.9-3.9,7.3-5.9l0,0c2.6-2.1,5-4.2,7.6-6.2c0.1-0.1,0.1-0.1,0.2-0.2
			c5-4.2,9.9-8.3,14.7-12.5c2.4-2.1,4.9-4.3,7.3-6.5c0.2-0.2,0.6-0.5,1-0.9c2.2-2,4.3-3.9,6.5-5.9c2.4-2.2,4.9-4.4,7.2-6.6
			c2.3-2.1,4.5-4.2,6.8-6.4c0.2-0.2,0.5-0.5,0.7-0.7c2.2-2.1,4.5-4.3,6.7-6.4l0.1-0.1c2.3-2.3,4.6-4.5,7-6.8
			c4.6-4.6,9.3-9.3,13.9-14.1l0,0L1522.8,946.9z"/>
	</g>
	<g>
		<g>
			<path class="st2" d="M1670.4,1542.6c-4.4,5.5-8.9,10.9-13.4,16.1c-7.5,8.7-14.9,17.1-22.6,25.5c-1.5,1.6-2.9,3.3-4.5,4.9
				l-0.1,0.1c-1.5,1.6-3.1,3.2-4.5,4.8c-1.6,1.6-3.1,3.3-4.6,4.9l0,0c-4.6,4.8-9.2,9.4-13.9,14.1c-2.3,2.3-4.6,4.5-7,6.8
				c-0.1,0-0.1,0.1-0.1,0.1c-2.2,2.2-4.5,4.3-6.7,6.4c-0.2,0.2-0.5,0.5-0.7,0.7c-2.2,2.2-4.5,4.3-6.8,6.4c-2.4,2.2-4.8,4.4-7.2,6.6
				c-2.2,2-4.3,3.9-6.5,5.9c-0.2,0.2-0.6,0.5-1,0.9c-2.4,2.2-4.9,4.3-7.3,6.5c-4.9,4.3-9.8,8.4-14.7,12.5c-0.1,0.1-0.1,0.1-0.2,0.2
				c-2.4,2.1-5,4.2-7.6,6.2l0,0c-2.4,2-4.9,3.9-7.3,5.9c-0.1,0.1-0.2,0.2-0.5,0.4c-2.4,2-5,3.9-7.6,5.9c-0.1,0.1-0.2,0.2-0.4,0.2
				c-2.4,1.8-4.8,3.7-7.2,5.5c-2.9,2.2-5.9,4.4-8.9,6.6c-2,1.5-3.9,2.8-5.9,4.3c-0.7,0.6-1.5,1.1-2.3,1.7c-2,1.3-3.9,2.8-5.7,4.2
				c-2.3,1.6-4.6,3.3-7,4.9c-1.1,0.7-2.1,1.5-3.2,2.2c-4.4,3.1-8.8,6-13.2,8.9c-1.1,0.7-2.2,1.5-3.3,2.2c-1.6,1-3.2,2.1-4.8,3.1
				c-1.2,0.7-2.3,1.6-3.5,2.3c-2.6,1.6-5,3.2-7.6,4.8c-2,1.2-3.9,2.4-5.9,3.7c-0.7,0.4-1.3,0.9-2.1,1.2c-2.2,1.3-4.3,2.6-6.5,3.9
				c-0.6,0.4-1.2,0.7-1.8,1.1c-2.6,1.6-5.3,3.1-7.8,4.6c-2.4,1.5-4.9,2.8-7.5,4.3c-0.7,0.5-1.6,0.9-2.3,1.3c-2,1.1-3.9,2.2-5.9,3.3
				c-3.8,2.1-7.6,4.2-11.4,6.2c-2.1,1.1-4,2.2-6.1,3.2c-0.7,0.4-1.3,0.7-2.1,1.1c-2.3,1.2-4.8,2.4-7.1,3.7c-0.2,0.1-0.5,0.2-0.9,0.4
				c-2.8,1.5-5.6,2.8-8.4,4.3c-0.1,0.1-0.2,0.1-0.4,0.2c-2.6,1.2-5.1,2.6-7.7,3.8c-0.2,0.1-0.5,0.2-0.6,0.4
				c-4.8,2.3-9.5,4.5-14.3,6.7c-1.2,0.5-2.3,1.1-3.5,1.6c-2,0.9-3.8,1.7-5.7,2.6c-2.3,1-4.5,2-6.8,3.1s-4.5,2-6.8,2.9
				c-1.1,0.5-2.2,1-3.4,1.5c-2,0.9-3.9,1.6-5.9,2.4c-0.5,0.2-0.9,0.4-1.3,0.5c-2.6,1.1-5,2.1-7.6,3.1c-0.1,0-0.2,0.1-0.4,0.1
				c-2.4,1-5,2-7.5,2.9c-2.3,0.9-4.6,1.8-7,2.7c-1.3,0.5-2.7,1-4,1.5c-0.2,0.1-0.5,0.2-0.9,0.2c-2.6,1-5.3,2-7.8,2.9
				c-2,0.7-3.8,1.3-5.7,2.1c-2.4,0.9-4.8,1.7-7.2,2.4c-0.1,0-0.1,0-0.2,0.1c-2,0.7-4,1.3-6,2.1c-0.2,0.1-0.6,0.2-0.9,0.2
				c-1.3,0.5-2.7,1-4.2,1.3c-3.7,1.2-7.3,2.3-11,3.5c-2.4,0.7-5,1.6-7.5,2.3c-0.6,0.2-1.3,0.4-2,0.6c-1,0.2-2,0.6-2.9,0.9
				c-5.3,1.6-10.5,3.1-15.9,4.5c-2.4,0.7-4.9,1.3-7.3,2s-4.9,1.3-7.3,2c-1.3,0.4-2.7,0.7-4,1c-0.9,0.2-1.7,0.5-2.6,0.6
				c-2.2,0.6-4.5,1.1-6.7,1.7c-0.7,0.1-1.5,0.4-2.1,0.5c-2.2,0.5-4.4,1.1-6.6,1.6c-1.3,0.2-2.6,0.6-3.9,0.9
				c-2.8,0.6-5.6,1.2-8.4,1.8c-1.6,0.4-3.3,0.7-4.9,1c-2,0.4-4,0.9-6,1.2c-1.8,0.4-3.7,0.7-5.5,1.1c-1.1,0.2-2.3,0.5-3.4,0.6
				c-0.2,0-0.5,0.1-0.9,0.1c-2,0.4-3.9,0.7-5.7,1.1c-0.2,0.1-0.5,0.1-0.9,0.1c-2.3,0.5-4.8,0.9-7.2,1.3c-3.2,0.6-6.4,1.1-9.5,1.6
				c-2.7,0.5-5.5,0.9-8.3,1.3c-2.6,0.4-5.1,0.7-7.7,1.1c-1.1,0.2-2.3,0.4-3.4,0.5c-2.2,0.4-4.4,0.6-6.6,1l212.9-463.8l206.8-450.3
				l0,0l51.7-112.6L1670.4,1542.6z"/>
		</g>
		<g>
			<path class="st2" d="M1367.6,186.5l-383,879.2l-381-880.5c0.2-0.1,0.5-0.2,0.7-0.4c119.1-56.7,246.9-85.4,379.8-85.4
				c134.1,0,262.8,29.2,382.7,86.8C1367.2,186.3,1367.4,186.4,1367.6,186.5z"/>
		</g>
		<g>
			<path class="st2" d="M866.6,1861.1c-92.8-12.2-182-39-264.9-78.7c-93.9-45-179.7-106.6-253.3-182.9
				c-11.9-12.2-23.3-24.8-34.6-37.9c-4.5-5.3-9-10.6-13.4-16l95.1-710.8l51.7,112.6l206.2,449.2L866.6,1861.1z"/>
		</g>
		<g>
			<path class="st3" d="M1869,984.2c0,203.7-70.3,401.1-198.5,558.4l-96-708.3l-51.7,112.6l0,0l-206.8,450.3L1103,1861
				c-4.8,0.6-9.5,1.3-14.2,1.8c-68.7,8.1-139.4,8.2-207.9,0.1c-4.8-0.6-9.4-1.2-14.2-1.8l-213.3-464.6L447,947.4l-51.7-112.6
				l-95.1,710.8c-129.7-157.9-201-356.5-201-561.5c0-339.3,197.9-652.9,504.2-799l381,880.5l383-879.2
				C1672.1,333.2,1869,646.3,1869,984.2z"/>
		</g>
		<g>
			<path class="st1" d="M1563.2,1653.2c-4.9,4.3-9.8,8.4-14.7,12.5C1553.4,1661.6,1558.5,1657.5,1563.2,1653.2z"/>
			<path class="st1" d="M1620.6,1598.9c-4.6,4.8-9.2,9.4-13.9,14.1C1611.3,1608.5,1615.9,1603.7,1620.6,1598.9z"/>
		</g>
	</g>
</g>
</svg>
