<?xml version="1.0" encoding="utf-8"?>
<!-- Generator: Adobe Illustrator 28.0.0, SVG Export Plug-In . SVG Version: 6.00 Build 0)  -->
<svg version="1.1" id="Camada_1" xmlns="http://www.w3.org/2000/svg" xmlns:xlink="http://www.w3.org/1999/xlink" x="0px" y="0px"
	 viewBox="0 0 507 507" style="enable-background:new 0 0 507 507;" xml:space="preserve">
<style type="text/css">
	.st0{fill:none;}
	.st1{fill:#FFFFFF;}
</style>
<g>
	<path class="st0" d="M133.5,67.6l121.1,198.1L372.5,67.6h38.3C366.8,30.4,311.2,10,253.5,10c-57.7,0-113.3,20.4-157.3,57.6H133.5z"
		/>
	<path class="st0" d="M30.4,155.8C16.9,186.6,10,219.4,10,253.5c0,34.1,6.9,66.9,20.4,97.7V155.8z"/>
	<path class="st0" d="M475.8,154l0.6,197.8c13.7-30.9,20.7-63.9,20.7-98.3C497,218.7,489.8,185.3,475.8,154z"/>
	<path class="st0" d="M362.4,439.4L361.3,270l-80.7,136h-55.2l-80.7-130.1v163.6H96.2c43.9,37.2,99.5,57.6,157.3,57.6
		c57.7,0,113.3-20.4,157.3-57.6H362.4z"/>
	<path class="st1" d="M480.2,140c-14.5-29-34.2-54.6-58.5-76.1C375.3,22.7,315.6,0,253.5,0C191.4,0,131.7,22.7,85.3,63.9
		c-24.8,22-44.8,48.2-59.4,77.8C8.7,176.6,0,214.3,0,253.5c0,39.2,8.7,76.9,25.9,111.8c14.6,29.6,34.6,55.8,59.3,77.8
		c46.4,41.2,106.1,63.8,168.2,63.8c62.1,0,121.8-22.7,168.2-63.8c24.7-21.9,44.6-47.9,59.1-77.4c17.4-35.1,26.1-72.8,26.1-112.2
		C507,213.6,498,175.4,480.2,140z M410.8,67.6h-38.3L254.6,265.7L133.5,67.6H96.2C140.2,30.4,195.8,10,253.5,10
		C311.2,10,366.8,30.4,410.8,67.6z M10,253.5c0-34.1,6.9-66.9,20.4-97.7v195.4C16.9,320.4,10,287.6,10,253.5z M96.2,439.4h48.4
		V275.8l80.7,130.1h55.2l80.7-136l1.1,169.4h48.4c-43.9,37.2-99.5,57.6-157.3,57.6C195.8,497,140.2,476.6,96.2,439.4z M476.3,351.8
		L475.8,154c14.1,31.3,21.2,64.7,21.2,99.5C497,287.8,490,320.8,476.3,351.8z"/>
</g>
</svg>
