<?xml version="1.0" encoding="utf-8"?>
<!-- Generator: Adobe Illustrator 28.0.0, SVG Export Plug-In . SVG Version: 6.00 Build 0)  -->
<svg version="1.1" id="Camada_1" xmlns="http://www.w3.org/2000/svg" xmlns:xlink="http://www.w3.org/1999/xlink" x="0px" y="0px"
	 viewBox="0 0 406 406" style="enable-background:new 0 0 406 406;" xml:space="preserve">
<style type="text/css">
	.st0{fill:#FFFFFF;}
</style>
<g>
	<g>
		<path class="st0" d="M203,104.2l19.9,40.3c6.3,12.7,18.4,21.6,32.5,23.6l44.5,6.5L267.7,206c-10.2,9.9-14.8,24.2-12.4,38.2
			l7.6,44.3l-39.8-20.9c-6.2-3.2-13.1-5-20.1-5c-7,0-13.9,1.7-20.1,5l-39.8,20.9l7.6-44.3c2.4-14-2.2-28.3-12.4-38.2l-32.2-31.4
			l44.5-6.5c14.1-2,26.2-10.9,32.5-23.6L203,104.2 M203,53c-4.7,0-9.4,2.4-11.8,7.3l-35,70.9c-1.9,3.9-5.6,6.6-9.9,7.2L68,149.8
			c-10.8,1.6-15.1,14.8-7.3,22.5l56.6,55.2c3.1,3,4.5,7.4,3.8,11.7l-13.4,78c-1.5,8.5,5.3,15.4,13,15.4c2,0,4.1-0.5,6.1-1.5l70-36.8
			c1.9-1,4-1.5,6.1-1.5s4.2,0.5,6.1,1.5l70,36.8c2,1.1,4.1,1.5,6.1,1.5c7.7,0,14.4-6.9,13-15.4l-13.4-78c-0.7-4.3,0.7-8.6,3.8-11.7
			l56.6-55.2c7.8-7.6,3.5-20.9-7.3-22.5l-78.3-11.4c-4.3-0.6-8-3.3-9.9-7.2l-35-70.9C212.4,55.4,207.7,53,203,53L203,53z"/>
	</g>
	<g>
		<path class="st0" d="M203,30c46.2,0,89.7,18,122.3,50.7C358,113.3,376,156.8,376,203c0,46.2-18,89.7-50.7,122.3S249.2,376,203,376
			c-46.2,0-89.7-18-122.3-50.7C48,292.7,30,249.2,30,203c0-46.2,18-89.7,50.7-122.3C113.3,48,156.8,30,203,30 M203,0
			C90.9,0,0,90.9,0,203c0,112.1,90.9,203,203,203c112.1,0,203-90.9,203-203C406,90.9,315.1,0,203,0L203,0z"/>
	</g>
</g>
</svg>
